<svg width="13" height="13" fill="none" xmlns="http://www.w3.org/2000/svg"><circle cx="6.5" cy="6.5" r="6.25" fill="url(#paint0_linear)" fill-opacity=".2" stroke="url(#paint1_linear)" stroke-width=".5"/><path d="M7.72 3.462a.513.513 0 01-.157.376.506.506 0 01-.375.151.507.507 0 01-.372-.156.502.502 0 01-.156-.376c0-.15.052-.277.156-.38a.513.513 0 01.376-.157c.147 0 .272.054.376.161a.511.511 0 01.152.38zm-1.382 6.67c-.287-.003-.457-.155-.513-.454-.055-.3-.03-.646.073-1.04l.523-2.617c.088-.433.011-.65-.23-.65-.214 0-.5.096-.859.288V5.62c.192-.215.413-.408.664-.58.25-.173.47-.26.66-.26.344 0 .535.161.57.484.03.276.004.612-.078 1.006L6.621 8.9c-.088.44-.008.66.24.66.191-.004.475-.105.849-.303v.044c-.501.553-.959.83-1.372.83z" fill="#fff"/><defs><linearGradient id="paint0_linear" x1="1.625" y1="2.438" x2="10.563" y2="11.781" gradientUnits="userSpaceOnUse"><stop stop-color="#28BA97"/><stop offset="1" stop-color="#B3EFE1"/></linearGradient><linearGradient id="paint1_linear" x1="1.625" y1="2.438" x2="10.563" y2="11.781" gradientUnits="userSpaceOnUse"><stop stop-color="#28BA97"/><stop offset="1" stop-color="#B3EFE1"/></linearGradient></defs></svg>