<svg width="13" height="14" fill="none" xmlns="http://www.w3.org/2000/svg"><circle cx="6.5" cy="6.898" r="6.5" fill="url(#paint0_linear)"/><circle cx="6.5" cy="6.898" r="5.5" fill="url(#paint1_linear)"/><path d="M7.72 3.86a.513.513 0 01-.157.376.506.506 0 01-.375.151.507.507 0 01-.372-.156.502.502 0 01-.156-.376c0-.15.052-.277.156-.381a.513.513 0 01.376-.156c.147 0 .272.053.376.16a.511.511 0 01.152.382zm-1.382 6.67c-.287-.004-.457-.155-.513-.455-.055-.299-.03-.646.073-1.04l.523-2.617c.088-.433.011-.65-.23-.65-.214 0-.5.097-.859.289v-.04a3.69 3.69 0 01.664-.58c.25-.173.47-.259.66-.259.344 0 .535.161.57.483.03.277.004.612-.078 1.006L6.621 9.3c-.088.44-.008.66.24.66.191-.004.475-.105.849-.303V9.7c-.501.554-.959.83-1.372.83z" fill="#56575E"/><defs><linearGradient id="paint0_linear" x1="1.625" y1="2.835" x2="10.563" y2="12.179" gradientUnits="userSpaceOnUse"><stop stop-color="#28BA97"/><stop offset="1" stop-color="#B3EFE1"/></linearGradient><linearGradient id="paint1_linear" x1="2.571" y1="2.969" x2="10.429" y2="10.433" gradientUnits="userSpaceOnUse"><stop stop-color="#29C59F"/><stop offset="1" stop-color="#CFF9EF"/></linearGradient></defs></svg>