<svg width="19" height="19" fill="none" xmlns="http://www.w3.org/2000/svg"><path d="M14.547 10.39a.297.297 0 00.297-.296V9.5a.297.297 0 00-.594 0v.594a.297.297 0 00.297.297zm0 1.782a.297.297 0 00-.297.297v.594a.297.297 0 10.594 0v-.594a.297.297 0 00-.297-.297z" fill="#2D2D2D"/><path d="M13.57 17.429a.89.89 0 00.383.087h3.563a.892.892 0 00.89-.891V8.906a.891.891 0 00-.89-.89h-3.563a.891.891 0 00-.89.89v1.485h-.594v-.594a.297.297 0 00-.297-.297H10.39a.297.297 0 00-.297.297v.594H9.5v-.594a.296.296 0 00-.087-.21.886.886 0 00.087-.384h.594a.297.297 0 000-.594H9.5a.297.297 0 00-.297-.296H7.422a.297.297 0 00-.297.296v.594c0 .133.03.264.087.384a.296.296 0 00-.087.21v.594H5.641v-.594h.296a.297.297 0 100-.594h-.296v-.297a.89.89 0 10-1.782 0V9.5a.297.297 0 10.594 0v-.594a.297.297 0 01.594 0v1.485H2.672v-.594a.89.89 0 00-1.781 0v.594a.297.297 0 00-.297.296v6.532a.297.297 0 00.297.297h12.468a.296.296 0 00.21-.087zm3.946-.507h-3.563a.297.297 0 01-.297-.297v-5.047h4.156v5.047a.298.298 0 01-.296.297zm-3.86-8.016a.297.297 0 01.297-.297h3.563a.298.298 0 01.297.297v2.078h-4.157V8.906zm-1.781 2.078v1.188H7.719v-1.188h4.156zm-4.156 1.782h4.156v2.968H7.719v-2.968zm2.968-2.672h1.188v.297h-1.188v-.297zm-2.968.297v-.297h1.187v.297H7.72zm0-1.485h1.187v.297a.298.298 0 01-.297.297h-.593a.298.298 0 01-.297-.297v-.297zm-6.235.89a.297.297 0 11.594 0v.595h-.594v-.594zm11.579 7.126H1.187v-5.938h5.938v5.047a.297.297 0 00.297.297h4.75a.297.297 0 00.297-.297v-5.047h.594v5.938z" fill="#2D2D2D"/><path d="M10.39 13.36H9.204a.297.297 0 000 .593h1.188a.297.297 0 100-.594zm-4.156.593H2.078a.297.297 0 00-.297.297v1.781a.297.297 0 00.297.297h4.156a.297.297 0 00.297-.297V14.25a.297.297 0 00-.297-.297zm-.296 1.781H2.374v-1.187h3.563v1.187zm.296-4.156H2.078a.297.297 0 00-.297.297v1.188a.297.297 0 00.297.296h4.156a.297.297 0 00.297-.296v-1.188a.297.297 0 00-.297-.297zm-.296 1.188H2.374v-.594h3.563v.594zm5.937-8.906a.297.297 0 00.297-.297v-.594a.297.297 0 00-.594 0v.594a.297.297 0 00.297.296zm3.563 0a.297.297 0 00.296-.297v-.594a.297.297 0 00-.593 0v.594a.297.297 0 00.296.296z" fill="#2D2D2D"/><path d="M.89 3.266h2.672v1.187h-.296A.297.297 0 003 4.617L2.11 6.4a.297.297 0 00.265.43h2.969a.297.297 0 00.265-.43l-.89-1.782a.297.297 0 00-.266-.164h-.297V3.266h3.86v1.187h-.297a.297.297 0 00-.266.164L6.563 6.4a.297.297 0 00.265.43h2.969a.297.297 0 00.265-.43l-.89-1.782a.297.297 0 00-.266-.164H8.61V3.266h2.079V5.64a.297.297 0 00.296.297h7.125a.297.297 0 00.297-.297V1.78a.297.297 0 00-.297-.297H.891a.297.297 0 00-.297.297v1.19a.297.297 0 00.297.297zm3.973 2.968H2.855l.594-1.187h.82l.594 1.187zm4.454 0H7.308l.594-1.187h.82l.595 1.187zm1.964-4.156h2.672v2.375h-2.672V2.078zm6.531 3.266h-6.53v-.297h6.53v.297zm0-.89h-3.265V2.077h3.265v2.375zM1.188 2.077h9.5v.594h-9.5v-.594zm7.422 9.798a.297.297 0 100-.594.297.297 0 000 .594zm1.187 0a.297.297 0 100-.594.297.297 0 000 .594zm1.187 0a.297.297 0 100-.594.297.297 0 000 .594z" fill="#2D2D2D"/></svg>