<svg width="34" height="34" fill="none" xmlns="http://www.w3.org/2000/svg"><path d="M16.758 16.378c2.25 0 4.198-.807 5.79-2.4 1.592-1.591 2.399-3.539 2.399-5.79 0-2.249-.807-4.197-2.4-5.79C20.957.808 19.008 0 16.758 0s-4.197.807-5.79 2.399c-1.591 1.592-2.399 3.54-2.399 5.79s.808 4.198 2.4 5.79c1.592 1.592 3.54 2.399 5.79 2.399zm-4.381-12.57c1.221-1.222 2.654-1.816 4.38-1.816 1.727 0 3.16.594 4.382 1.816 1.221 1.221 1.816 2.655 1.816 4.38 0 1.727-.595 3.16-1.816 4.382-1.222 1.222-2.655 1.816-4.381 1.816-1.726 0-3.16-.595-4.381-1.816-1.222-1.222-1.816-2.655-1.816-4.381 0-1.726.594-3.16 1.816-4.381zm18.71 22.336a20.222 20.222 0 00-.276-2.148 16.925 16.925 0 00-.528-2.16 10.667 10.667 0 00-.888-2.014 7.59 7.59 0 00-1.34-1.745 5.904 5.904 0 00-1.923-1.21 6.648 6.648 0 00-2.455-.443c-.347 0-.683.142-1.331.564-.399.26-.866.561-1.387.894-.445.284-1.048.55-1.793.79a7.124 7.124 0 01-2.195.355 7.14 7.14 0 01-2.194-.355c-.744-.24-1.348-.506-1.793-.79-.516-.33-.983-.63-1.387-.894-.648-.422-.984-.565-1.331-.565-.884 0-1.71.15-2.455.445a5.9 5.9 0 00-1.924 1.209A7.597 7.597 0 004.55 19.82c-.37.65-.668 1.328-.888 2.015a16.9 16.9 0 00-.528 2.16 20.09 20.09 0 00-.276 2.15 29.125 29.125 0 00-.068 2.007c0 1.775.564 3.212 1.677 4.271C5.565 33.47 7.018 34 8.786 34h16.372c1.768 0 3.221-.53 4.32-1.576 1.113-1.059 1.677-2.496 1.677-4.271 0-.685-.023-1.361-.068-2.009zm-2.982 4.837c-.726.69-1.69 1.026-2.947 1.026H8.787c-1.258 0-2.222-.335-2.947-1.026-.712-.678-1.058-1.603-1.058-2.828 0-.637.02-1.266.063-1.87.04-.593.124-1.244.249-1.935.122-.683.278-1.324.464-1.904a8.705 8.705 0 01.723-1.638c.288-.506.619-.94.984-1.29a3.917 3.917 0 011.28-.795 4.567 4.567 0 011.569-.303c.07.037.193.108.395.239.41.267.881.572 1.403.905.589.375 1.347.714 2.252 1.006.926.3 1.87.451 2.807.451a9.12 9.12 0 002.807-.45c.907-.294 1.665-.632 2.254-1.008.534-.341.993-.637 1.402-.904a5.39 5.39 0 01.395-.24c.573.016 1.1.118 1.57.304.507.2.938.468 1.28.795.365.35.696.784.983 1.29.302.53.545 1.082.723 1.637.186.581.343 1.222.465 1.905.124.693.208 1.344.25 1.935.041.602.063 1.23.063 1.87 0 1.225-.346 2.15-1.058 2.828z" fill="#575B5D"/></svg>