<svg width="40" height="40" fill="none" xmlns="http://www.w3.org/2000/svg"><path d="M28.696 38.446H11.304a2.108 2.108 0 01-2.108-2.108V3.662a2.108 2.108 0 012.108-2.108h17.392a2.108 2.108 0 012.108 2.108v32.676a2.109 2.109 0 01-2.108 2.108zM11.304 2.608a1.054 1.054 0 00-1.054 1.054v32.676a1.054 1.054 0 001.054 1.054h17.392a1.054 1.054 0 001.054-1.054V3.662a1.054 1.054 0 00-1.054-1.054H11.304z" fill="#fff"/><path d="M30.277 7.351H9.723a.527.527 0 110-1.054h20.554a.527.527 0 110 1.054zm0 24.244H9.723a.527.527 0 110-1.054h20.554a.527.527 0 110 1.054zM20 36.437a1.944 1.944 0 110-3.888 1.944 1.944 0 010 3.888zm0-2.833a.89.89 0 100 1.78.89.89 0 000-1.78zm2.108-28.493h-4.216a.527.527 0 010-1.054h4.216a.527.527 0 010 1.054z" fill="#fff"/></svg>