<svg width="15" height="15" fill="none" xmlns="http://www.w3.org/2000/svg"><g clip-path="url(#clip0)"><path d="M14.472 8.683c.447-3.767-.215-6.145-1.41-7.22v-.001C11.134-.375 4.62-.647 2.312 1.544 1.276 2.616.912 4.19.872 6.137c-.04 1.948-.088 5.597 3.312 6.587h.003l-.003 1.512s-.023.613.368.736c.448.145.65-.14 2.042-1.802 2.328.202 4.115-.26 4.318-.328.47-.158 3.13-.51 3.56-4.159zm-7.648 3.423S5.35 13.943 4.892 14.42c-.15.155-.314.14-.311-.167l.01-2.51C1.71 10.917 1.88 7.81 1.91 6.183c.031-1.625.329-2.957 1.206-3.854C5.141.43 10.851.855 12.306 2.223c1.779 1.576 1.146 6.031 1.15 6.183-.366 3.046-2.521 3.24-2.917 3.371-.17.057-1.742.461-3.715.33z" fill="url(#paint0_linear)"/><path d="M7.639 2.686c-.24 0-.24.375 0 .378 1.867.014 3.404 1.315 3.421 3.702 0 .252.369.249.366-.003h-.001c-.02-2.572-1.699-4.063-3.786-4.077z" fill="url(#paint1_linear)"/><path d="M10.094 6.37c-.005.25.363.261.366.01.03-1.419-.844-2.587-2.487-2.71-.24-.018-.266.36-.026.378 1.425.108 2.176 1.08 2.147 2.323z" fill="url(#paint2_linear)"/><path d="M9.7 7.984c-.308-.179-.622-.068-.752.108l-.272.352c-.138.179-.396.155-.396.155-1.884-.498-2.388-2.47-2.388-2.47s-.023-.266.15-.41l.34-.28c.17-.136.277-.46.104-.78-.463-.836-.773-1.124-.931-1.345-.167-.208-.417-.255-.677-.115h-.005c-.541.317-1.133.909-.943 1.518.323.642.916 2.69 2.809 4.238.89.732 2.297 1.482 2.894 1.655l.006.009c.589.196 1.161-.419 1.467-.976V9.64c.135-.27.09-.525-.108-.691a7.37 7.37 0 00-1.297-.964z" fill="url(#paint3_linear)"/><path d="M8.23 5.065c.601.035.892.349.924.993.01.252.377.235.365-.017-.04-.842-.478-1.31-1.268-1.354-.241-.014-.264.364-.02.378z" fill="url(#paint4_linear)"/></g><defs><linearGradient id="paint0_linear" x1="7.737" y1="-.008" x2="7.737" y2="15.005" gradientUnits="userSpaceOnUse"><stop stop-color="#AE93E5"/><stop offset="1" stop-color="#7F34AA"/></linearGradient><linearGradient id="paint1_linear" x1="9.442" y1="2.686" x2="9.442" y2="6.954" gradientUnits="userSpaceOnUse"><stop stop-color="#AE93E5"/><stop offset="1" stop-color="#7F34AA"/></linearGradient><linearGradient id="paint2_linear" x1="9.12" y1="3.669" x2="9.12" y2="6.563" gradientUnits="userSpaceOnUse"><stop stop-color="#AE93E5"/><stop offset="1" stop-color="#7F34AA"/></linearGradient><linearGradient id="paint3_linear" x1="7.539" y1="3.119" x2="7.539" y2="10.656" gradientUnits="userSpaceOnUse"><stop stop-color="#AE93E5"/><stop offset="1" stop-color="#7F34AA"/></linearGradient><linearGradient id="paint4_linear" x1="8.789" y1="4.686" x2="8.789" y2="6.239" gradientUnits="userSpaceOnUse"><stop stop-color="#AE93E5"/><stop offset="1" stop-color="#7F34AA"/></linearGradient><clipPath id="clip0"><path fill="#fff" d="M0 0h15v15H0z"/></clipPath></defs></svg>