<svg width="35" height="35" fill="none" xmlns="http://www.w3.org/2000/svg"><g clip-path="url(#clip0)" fill="#fff"><path d="M17.5.5C8.126.5.5 8.126.5 17.5c0 3.198.889 6.302 2.574 8.998-.671 2.353-1.884 6.803-1.897 6.85a.652.652 0 00.176.64c.172.166.42.225.647.156l6.738-2.073A16.959 16.959 0 0017.5 34.5c9.374 0 17-7.626 17-17 0-9.374-7.626-17-17-17zm0 32.692c-2.955 0-5.833-.825-8.324-2.387a.654.654 0 00-.54-.07l-5.883 1.81c.432-1.577 1.208-4.4 1.659-5.969a.656.656 0 00-.08-.537A15.632 15.632 0 011.808 17.5c0-8.652 7.04-15.692 15.692-15.692 8.652 0 15.692 7.04 15.692 15.692 0 8.652-7.04 15.692-15.692 15.692z"/><path d="M28.605 21.506c-1.207-.67-2.234-1.343-2.984-1.833-.573-.374-.987-.644-1.29-.797-.848-.423-1.491-.124-1.736.123a.657.657 0 00-.081.1c-.881 1.321-2.031 2.585-2.368 2.653-.39-.06-2.21-1.096-4.02-2.603-1.848-1.54-3.01-3.014-3.18-4.019 1.185-1.22 1.612-1.987 1.612-2.86 0-.901-2.1-4.66-2.48-5.04-.382-.38-1.24-.44-2.552-.178a.66.66 0 00-.335.178c-.158.159-3.876 3.95-2.11 8.543 1.94 5.042 6.917 10.902 13.264 11.855a13.75 13.75 0 002.03.161c3.733 0 5.937-1.879 6.557-5.605a.651.651 0 00-.327-.678zm-8.066 4.828C13.828 25.328 9.6 18.68 8.302 15.304 7.014 11.956 9.39 8.97 9.986 8.297c.485-.083.996-.117 1.209-.084.445.619 1.987 3.532 2.055 4.056 0 .344-.112.822-1.443 2.153a.651.651 0 00-.192.463c0 3.423 7.221 8.173 8.5 8.173 1.112 0 2.563-1.87 3.389-3.088a.62.62 0 01.242.076c.235.119.643.385 1.16.722a51.984 51.984 0 002.654 1.649c-.485 2.334-1.841 4.695-7.021 3.917z"/></g><defs><clipPath id="clip0"><path fill="#fff" transform="translate(.5 .5)" d="M0 0h34v34H0z"/></clipPath></defs></svg>