<svg version="1.0" xmlns="http://www.w3.org/2000/svg" width="128" height="49.333" viewBox="0 0 96 37"><path d="M0 18.5V37h96V0H47v10H36V0H0v18.5zM33 3.4c0 2.2-.3 2.3-9.3 2.8C11 6.9 7 9.8 7 18.5c0 8 4.2 11.5 14 11.5h6V11.9l2.8.3 2.7.3.3 11.9.3 11.8-10.3-.4c-8.7-.3-10.9-.7-14.2-2.7C-2 26.5-1.2 8.9 10 3.2 13.6 1.4 16.1 1 23.7 1 32.8 1 33 1 33 3.4zm24 15.1V36h-6V1h6v17.5zM84.3 2.4c7.9 3.3 12.3 13 9.7 21.3-2.8 8.7-9.3 12.2-22.2 12.3H63v-6h9.3c10.2 0 12.6-.9 15.2-6C92.2 14.9 84.3 5.2 73 6.2l-3.5.3-.5 9c-.5 8.9-.5 9-3.2 9.3l-2.8.3V1h9c5.4 0 10.4.6 12.3 1.4zM44.5 24v11.5l-2.7.3-2.8.3V11.9l2.8.3 2.7.3V24z"/></svg>