<svg width="29" height="25" fill="none" xmlns="http://www.w3.org/2000/svg"><path d="M28.666 7.037c-.512-.68-1.448-.768-2.207-.768h-1.905V5.262c0-1.006-.771-1.825-1.72-1.825H12.207V2.151c0-.852-.636-1.546-1.42-1.546H5.129c-.782 0-1.418.694-1.418 1.546v1.286H1.747c-.948 0-1.719.82-1.719 1.825v18.389l-.005.019a.567.567 0 00.543.725h23.431a.566.566 0 00.544-.408l4.242-14.536c.203-.699.412-1.71-.117-2.414zM1.16 5.262c0-.375.268-.692.586-.692h2.53a.566.566 0 00.566-.566V2.15c0-.236.15-.413.285-.413h5.659c.135 0 .286.177.286.413v1.853c0 .313.254.566.567.566h11.195c.318 0 .586.317.586.692V6.27H8.17c-1.067 0-1.914.1-2.58.582-.59.428-.973 1.098-1.325 2.31L1.16 19.776V5.262zm26.535 3.872l-4.123 14.128H1.323L5.35 9.48c.513-1.766.935-2.077 2.819-2.077h18.289c.706 0 1.143.106 1.3.316.115.152.197.521-.063 1.416z" fill="#1ED3A8"/></svg>